# xmcd
#
# Track frame offsets:
#	150
#	12109
#	23471
#	34362
#	46101
#	56211
#	66383
#	76557
#	87298
#	99882
#	109542
#	118959
#	129901
#	142535
#	151951
#	162926
#	173953
#	185562
#	198441
#	211841
#	224049
#	234505
#	244519
#	252004
#	261502
#	272855
#	283952
#	294334
#	304715
#	318221
#	329446
#	338696
#	349538
#
# Disc length: 4784 seconds
#
# Revision: 1
# Processed by: cddbd v1.5.2PL0 Copyright (c) Steve Scherf et al.
# Submitted via: audiograbber 1.83.01
#
DISCID=d212ae21
DTITLE=After Sun  CD3 - After Sun  CD3
DYEAR=2013
DGENRE=RR-Boo/
TTITLE0=Floyd Frank (Harmonica FranK) - Rock a little Baby
TTITLE1=Taylor "Wild" Bill (William Tell Taylor and The Clefs - Little Jewell
TTITLE2=Gordon Rosco with Joe Scott Orchestra - Tummer Tee
TTITLE3=Little Milton - Long Distance Operator
TTITLE4=Smokey Joe (Baugh) - Start all over again
TTITLE5=Perkins Carl - L-o-v-e-v-i-l-l-e
TTITLE6=Presley Elvis - I want you with me
TTITLE7=King B.B. and his Orchestra - I've got Papers on you Baby
TTITLE8=Thomas Rufus "Bearcat" - The Easy Livin' Plan
TTITLE9=Feathers Charlie with Jody and Jerry - When you come around
TTITLE10=Bond Eddie - This ole Heart of mine
TTITLE11=Smith Ray - Makes me feel good
TTITLE12=Louis Joe Hill (As little Joe) - Keep your Arms around me
TTITLE13=Brenston Jackie with Ike Turner's Kingss of Rhythm - Gonna wait for my
TTITLE13=Chance
TTITLE14=Parchman Kenny - Don't you know
TTITLE15=Spitfires The (feat. Billy Riley and Roland Janes) - Catfish
TTITLE16=King B.B. - Mean ole Frisco
TTITLE17=Cash Jojnny - Locomotive Man
TTITLE18=Thompson Hayden - Watcha gonna do
TTITLE19=Nix Willi and his Combo - Just can't Stay
TTITLE20=Beard Dean - Rakin and Scrapin
TTITLE21=Turner Jesse Lee - Shake Baby Shake
TTITLE22=Williams Jimmy - You're always late
TTITLE23=Orbison Roy - Almost Eighteen
TTITLE24=Skipper Macy (Skip) and his Orchestra - Who put the Squeeze on Eloise
TTITLE25=Parchman Kenny - Treat me right
TTITLE26=Emerson Billy - Holy Mackerel Baby
TTITLE27=Perkins Carl - Honey cause i Love you
TTITLE28=Simmons Gene - Goin' back to Memphis
TTITLE29=Howlin' Wolf - You'll be mine
TTITLE30=Moore Scotty Trio - Have Guitar will Travel
TTITLE31=Presley Elvis - I'm comin' Home
TTITLE32=Black's Bill Combo - Movin'
EXTD=
EXTT0=
EXTT1=
EXTT2=
EXTT3=
EXTT4=
EXTT5=
EXTT6=
EXTT7=
EXTT8=
EXTT9=
EXTT10=
EXTT11=
EXTT12=
EXTT13=
EXTT14=
EXTT15=
EXTT16=
EXTT17=
EXTT18=
EXTT19=
EXTT20=
EXTT21=
EXTT22=
EXTT23=
EXTT24=
EXTT25=
EXTT26=
EXTT27=
EXTT28=
EXTT29=
EXTT30=
EXTT31=
EXTT32=
PLAYORDER=
